<svg height="488pt" viewBox="-4 0 488 488" width="488pt" xmlns="http://www.w3.org/2000/svg"><path d="m448 184v-8c.109375-71.621094-49.945312-133.539062-120-148.441406v-19.558594c0-4.417969-3.582031-8-8-8h-48c-4.417969 0-8 3.582031-8 8v19.488281c-42.007812 8.910157-78.242188 35.277344-99.640625 72.511719l13.847656 8c11.160157-19.253906 26.886719-35.464844 45.792969-47.199219v35.199219h16v-43.777344c7.722656-3.472656 15.761719-6.207031 24-8.167968v75.945312c0 4.417969 3.582031 8 8 8h48c4.417969 0 8-3.582031 8-8v-76.121094c8.242188 1.976563 16.28125 4.734375 24 8.234375v43.886719h16v-35.390625c8.75 5.472656 16.863281 11.914063 24.175781 19.199219 25.5625 25.476562 39.898438 60.101562 39.824219 96.191406v8h-24v-32c0-4.417969-3.582031-8-8-8h-48c-4.417969 0-8 3.582031-8 8v24h16v-16h32v24h-24v16h80c8.835938 0 16 7.164062 16 16s-7.164062 16-16 16h-112v16h112c17.671875 0 32-14.328125 32-32s-14.328125-32-32-32zm-136-72h-32v-96h32zm0 0"/><path d="m8 344h37.792969c2.953125 10.238281 7.046875 20.109375 12.207031 29.433594l-26.734375 26.734375c-3.125 3.125-3.125 8.1875 0 11.3125l45.253906 45.253906c3.125 3.125 8.1875 3.125 11.3125 0l26.734375-26.734375c9.324219 5.160156 19.195313 9.253906 29.433594 12.207031v37.792969c0 4.417969 3.582031 8 8 8h64c4.417969 0 8-3.582031 8-8v-37.792969c10.238281-2.953125 20.109375-7.046875 29.433594-12.207031l26.734375 26.734375c3.125 3.125 8.1875 3.125 11.3125 0l45.253906-45.253906c3.125-3.125 3.125-8.1875 0-11.3125l-26.734375-26.734375c5.160156-9.324219 9.253906-19.195313 12.207031-29.433594h37.792969c4.417969 0 8-3.582031 8-8v-64c0-4.417969-3.582031-8-8-8h-37.792969c-2.953125-10.234375-7.050781-20.109375-12.207031-29.433594l26.734375-26.734375c3.125-3.125 3.125-8.1875 0-11.3125l-45.253906-45.253906c-3.125-3.125-8.1875-3.125-11.3125 0l-26.734375 26.734375c-9.324219-5.160156-19.195313-9.253906-29.433594-12.207031v-37.792969c0-4.417969-3.582031-8-8-8h-64c-4.417969 0-8 3.582031-8 8v37.792969c-10.238281 2.953125-20.109375 7.046875-29.433594 12.207031l-26.734375-26.734375c-3.125-3.125-8.1875-3.125-11.3125 0l-45.253906 45.253906c-3.125 3.125-3.125 8.1875 0 11.3125l26.734375 26.734375c-5.15625 9.324219-9.253906 19.199219-12.207031 29.433594h-37.792969c-4.417969 0-8 3.582031-8 8v64c0 4.417969 3.582031 8 8 8zm8-64h35.945312c3.691407 0 6.90625-2.53125 7.773438-6.121094 3.113281-12.859375 8.210938-25.15625 15.113281-36.445312 1.925781-3.152344 1.441407-7.214844-1.167969-9.824219l-25.433593-25.433594 33.945312-33.945312 25.433594 25.433593c2.613281 2.613282 6.675781 3.097657 9.832031 1.167969 11.28125-6.910156 23.578125-12.007812 36.4375-15.113281 3.589844-.867188 6.121094-4.082031 6.121094-7.773438v-35.945312h48v35.945312c0 3.691407 2.53125 6.90625 6.121094 7.773438 12.859375 3.105469 25.15625 8.203125 36.4375 15.113281 3.15625 1.929688 7.21875 1.445313 9.832031-1.167969l25.433594-25.433593 33.945312 33.945312-25.433593 25.433594c-2.609376 2.609375-3.09375 6.671875-1.167969 9.824219 6.902343 11.289062 12 23.585937 15.113281 36.445312.867188 3.589844 4.082031 6.121094 7.773438 6.121094h35.945312v48h-35.945312c-3.691407 0-6.90625 2.53125-7.773438 6.121094-3.105469 12.859375-8.203125 25.15625-15.113281 36.4375-1.929688 3.15625-1.445313 7.21875 1.167969 9.832031l25.433593 25.433594-33.945312 33.945312-25.433594-25.433593c-2.613281-2.613282-6.675781-3.097657-9.832031-1.167969-11.28125 6.910156-23.578125 12.007812-36.4375 15.113281-3.589844.867188-6.121094 4.082031-6.121094 7.773438v35.945312h-48v-35.945312c0-3.691407-2.53125-6.90625-6.121094-7.773438-12.859375-3.105469-25.15625-8.203125-36.4375-15.113281-3.15625-1.929688-7.21875-1.445313-9.832031 1.167969l-25.433594 25.433593-33.945312-33.945312 25.433593-25.433594c2.613282-2.613281 3.097657-6.675781 1.167969-9.832031-6.910156-11.28125-12.007812-23.578125-15.113281-36.4375-.867188-3.589844-4.082031-6.121094-7.773438-6.121094h-35.945312zm0 0"/><path d="m184 400c53.019531 0 96-42.980469 96-96s-42.980469-96-96-96-96 42.980469-96 96c.058594 52.996094 43.003906 95.941406 96 96zm0-176c44.183594 0 80 35.816406 80 80s-35.816406 80-80 80-80-35.816406-80-80c.046875-44.164062 35.835938-79.953125 80-80zm0 0"/><path d="m184 352c26.507812 0 48-21.492188 48-48s-21.492188-48-48-48-48 21.492188-48 48c.027344 26.5 21.5 47.972656 48 48zm0-80c17.671875 0 32 14.328125 32 32s-14.328125 32-32 32-32-14.328125-32-32 14.328125-32 32-32zm0 0"/></svg>