<svg id="_x33_0" enable-background="new 0 0 62 62" height="512" viewBox="0 0 62 62" width="512" xmlns="http://www.w3.org/2000/svg"><g><path d="m39 20c3.859 0 7-3.14 7-7s-3.141-7-7-7-7 3.14-7 7 3.141 7 7 7zm0-12c2.757 0 5 2.243 5 5s-2.243 5-5 5-5-2.243-5-5 2.243-5 5-5z"/><path d="m39 16c1.654 0 3-1.346 3-3s-1.346-3-3-3-3 1.346-3 3 1.346 3 3 3zm0-4c.552 0 1 .449 1 1s-.448 1-1 1-1-.449-1-1 .448-1 1-1z"/><path d="m54 46.528v-.528h5c1.654 0 3-1.346 3-3v-30c0-1.654-1.346-3-3-3h-7.852c-.725-.184-1.305-.676-1.594-1.372-.298-.718-.229-1.506.188-2.163l.431-.677-3.963-3.962-.677.431c-.655.418-1.443.486-2.163.188-.718-.297-1.227-.903-1.395-1.662l-.172-.783h-5.605l-.174.783c-.168.759-.677 1.365-1.395 1.662-.718.298-1.506.229-2.163-.188l-.677-.431-3.963 3.962.431.677c.417.656.486 1.444.188 2.163-.288.696-.868 1.188-1.593 1.372h-17.852c-1.654 0-3 1.346-3 3v15.586l-3.526 3.527c-1.595 1.594-2.474 3.715-2.474 5.97 0 .693.085 1.382.253 2.048l3.474 13.896c-.973.136-1.727.964-1.727 1.973v4h-2v2h62v-2h-10v-4.78c1.305-2.697 2-5.695 2-8.692zm-2 0c0 2.569-.569 5.137-1.638 7.472h-14.998c-2.106-1.699-3.364-4.286-3.364-7v-1.148c0-2.684-.506-5.308-1.502-7.799l-.429-1.07c-.046-.116-.069-.239-.069-.365 0-.341.277-.618.618-.618 1.469 0 2.71 1.051 2.951 2.501l.294 1.758c.168 1.009 1.032 1.741 2.054 1.741 1.148 0 2.083-.935 2.083-2.083v-14.917c0-.551.448-1 1-1s1 .449 1 1v15h2v-5c0-.551.448-1 1-1s1 .449 1 1v5h2v-5c0-.551.448-1 1-1s1 .449 1 1v5h2v-3c0-.551.448-1 1-1s1 .449 1 1zm-20-18.528v2h-4v-2zm-3.918 8h-.082v-4h4v2.212c-.442-.127-.901-.212-1.382-.212-1.229 0-2.257.855-2.536 2zm3.918-10v-1.96l.466-.296c.657-.417 1.445-.485 2.163-.188.695.288 1.188.869 1.371 1.595v14.767c-.001.085-.149.1-.164.014l-.294-1.759c-.189-1.133-.753-2.11-1.542-2.84v-9.333zm-2 0h-4v10h-2v-13.719l6 1.5zm-8 2h-2v-2h2zm-2 2h2v2h-2zm0 4h2v2h-2zm2-14.281v4.281h-4v14h10.322l.318.795c.159.396.286.801.417 1.205h-13.057v-24h8v4.219zm7.596 22.281c.137.661.247 1.327.312 2h-13.224c-.052-.072-.09-.152-.145-.222l-1.383-1.778zm-11.952 8.231c.236-.708.356-1.446.356-2.194 0-.693-.12-1.378-.323-2.037h12.323v1c0 3.268 1.494 6.384 4 8.461v4.539h-18v-4.838zm42.356-37.231v30c0 .551-.448 1-1 1h-5v-2h4v-28h-6v-2h7c.552 0 1 .449 1 1zm-8.852 3h4.852v24h-2v-3c0-1.654-1.346-3-3-3-.395 0-.77.081-1.116.22-.345-1.275-1.501-2.22-2.884-2.22-.771 0-1.468.301-2 .78-.532-.48-1.229-.78-2-.78-.352 0-.686.072-1 .184v-7.034c.183-.726.676-1.307 1.371-1.595.72-.297 1.508-.229 2.163.188l.677.431 3.963-3.963-.431-.677c-.417-.655-.486-1.443-.188-2.162.287-.695.868-1.188 1.593-1.372zm-23.148-4.278c1.027-.445 1.857-1.275 2.293-2.329.437-1.053.438-2.227.025-3.269l1.807-1.807c1.041.413 2.215.412 3.27-.025 1.052-.436 1.882-1.265 2.328-2.292h2.555c.445 1.027 1.275 1.856 2.328 2.293 1.054.436 2.228.438 3.27.025l1.807 1.807c-.412 1.042-.411 2.215.025 3.269.436 1.053 1.266 1.884 2.293 2.329v2.556c-1.028.445-1.857 1.275-2.293 2.329-.437 1.053-.438 2.227-.025 3.268l-1.807 1.807c-1.04-.412-2.214-.411-3.27.025-.606.251-1.133.636-1.561 1.11-.537-.504-1.253-.818-2.045-.818s-1.508.314-2.045.817c-.427-.474-.955-.859-1.561-1.11-1.054-.437-2.228-.438-3.27-.025l-1.807-1.807c.412-1.041.411-2.215-.025-3.268-.436-1.054-1.265-1.884-2.293-2.329v-2.556zm.445 5.65c.298.718.229 1.506-.188 2.162l-.431.677 1.287 1.287-3.113-.779v-4.719h.852c.725.184 1.306.677 1.593 1.372zm-19.445-5.372h17v2h-12v26.514l-2.911-3.742c-.381-.49-.957-.772-1.662-.772-.511 0-.991.12-1.427.321v-23.321c0-.551.448-1 1-1zm-7 26.083c0-1.721.67-3.339 1.888-4.557l2.112-2.112v8.013c0 .528.125 1.057.361 1.533l3.744 7.487 1.789-.895-3.743-7.486c-.099-.197-.151-.419-.151-.639 0-.786.64-1.427 1.51-1.427h.001l5.449 7.005c.671.863 1.04 1.939 1.04 3.031 0 .532-.085 1.058-.253 1.561l-1.468 4.403h-8.499l-3.588-14.354c-.128-.509-.192-1.034-.192-1.563zm2 17.917h10v4h-10zm32 4v-4h14v4z"/><path d="m10 24h2v8h-2z"/><path d="m44 28h2v2h-2z"/><path d="m48 28h6v2h-6z"/><path d="m48 24h6v2h-6z"/></g></svg>