<svg id="Layer_1" enable-background="new 0 0 512 512" height="512" viewBox="0 0 512 512" width="512" xmlns="http://www.w3.org/2000/svg"><path d="m362.106 295.618c-17.051-4.23-33.464-10.71-48.806-19.268l-12.3-6.631v-4.956c11.625-10.233 19.317-24.2 21.751-39.495l4.31-27.511c9.932-1.06 17.123-9.971 16.063-19.903-.533-4.991-3.116-9.535-7.131-12.547 2.08-6.127 3.652-12.415 4.7-18.8 6.957-2.652 11.527-9.355 11.453-16.8.112-8.089-5.316-15.207-13.146-17.24v-17.888c.042-36.699-28.275-67.195-64.876-69.871-2.36-8.109-9.784-13.692-18.23-13.708-8.408.023-15.783 5.617-18.071 13.708-36.591 2.68-64.89 33.182-64.823 69.871v17.888c-7.828 2.031-13.257 9.146-13.149 17.233-.077 7.236 4.234 13.798 10.906 16.6 1.066 5.039 2.557 9.978 4.457 14.765l2.174 5.471c-7.31 6.806-7.719 18.25-.912 25.56 2.968 3.188 6.987 5.197 11.317 5.659l4.309 27.51c2.221 13.976 8.841 26.88 18.898 36.835v9.646l-15.442 7.69c-14.522 7.137-29.822 12.568-45.594 16.183-36.961 8.784-63.03 41.832-62.964 79.823v119.558c.058 3.337 2.784 6.009 6.122 6h325.756c3.338.009 6.064-2.663 6.122-6v-119.558c.098-37.979-25.946-71.034-62.894-79.824zm-21.106 6.376c3 1.1 7 2.109 10 3.024v67.982h-10zm-66-265.194c29.548 3.149 51.971 28.064 52 57.779v17.421h-43.868c1.39-3.602 2.117-7.425 2.145-11.286-.134-8.561-3.864-16.67-10.277-22.343zm-26-6.677c0-3.866 3.134-7 7-7s7 3.134 7 7v42.009c-4.593-1.173-9.407-1.173-14 0zm7 53.129c9.572.006 17.326 7.77 17.32 17.342s-7.77 17.326-17.342 17.32c-9.567-.006-17.32-7.764-17.32-17.331.014-9.57 7.772-17.323 17.342-17.331zm-71 11.327c.029-29.715 22.452-54.63 52-57.779v41.571c-6.413 5.673-10.143 13.782-10.277 22.343.028 3.861.755 7.684 2.145 11.286h-43.868zm-13.363 35.421c.003-3.301 2.67-5.981 5.971-6h60.413c10.572 8.235 25.386 8.235 35.958 0h60.413c3.314 0 6 2.686 6 6s-2.686 6-6 6h-156.784c-3.301-.019-5.968-2.699-5.971-6zm15.363 18v10.086l-.606-1.285c-1.163-2.873-2.158-5.811-2.979-8.8zm16.958 75.415-5.088-32.415c-.465-2.905-2.987-5.031-5.928-5h-3.224c-3.314 0-6-2.686-6-6s2.686-6 6-6h3.224c3.39-.158 6.057-2.952 6.058-6.346v-19.654h117v19.654c-.067 3.364 2.55 6.174 5.911 6.346h3.224c3.314 0 6 2.686 6 6s-2.686 6-6 6h-3.224c-2.942-.032-5.463 2.095-5.928 5l-5.083 32.446c-4.616 29.529-32.296 49.724-61.825 45.108-23.253-3.635-41.491-21.883-45.113-45.139zm85.042 49.735v22.915c-8 9.259-20.293 14.528-33 14.528s-25-5.269-33-14.528v-24.549c1.083.663 2.187 1.296 3.312 1.9 19.44 10.399 42.79 10.399 62.23 0 .158-.087.303-.182.458-.266zm-106 24.974c6-2.411 12.315-5.051 18.117-7.967l9.883-4.983v13.167c-.051 1.404.404 2.779 1.28 3.877 20.344 24.176 56.435 27.282 80.611 6.939 2.507-2.11 4.829-4.431 6.939-6.939.845-1.109 1.261-2.486 1.171-3.877v-14.926l6.316 3.45c7.207 3.964 14.684 7.465 21.684 10.5v75.635h-146.001zm-22 6.965c3-.879 7-1.8 10-2.777v70.688h-10zm194 183.911h-198v-50c0-3.314-2.686-6-6-6s-6 2.686-6 6v50h-46v-113.558c.118-30.946 20.394-58.2 50-67.209v66.751c-2.392 2.118-3.833 5.109-4 8.3v13.716c0 3.314 2.686 6 6 6s6-2.686 6-6v-12h198zm58 0h-46v-105.719c-.167-3.191-1.608-6.182-4-8.3v-66.748c29.606 9.009 49.882 36.263 50 67.209z"/><path d="m115 407.425c-3.314 0-6 2.686-6 6v50.756c0 3.314 2.686 6 6 6s6-2.686 6-6v-50.756c0-3.314-2.686-6-6-6z"/><path d="m115 383.857c-3.314 0-6 2.686-6 6v4.884c0 3.314 2.686 6 6 6s6-2.686 6-6v-4.884c0-3.314-2.686-6-6-6z"/></svg>