<svg id="Layer_1" enable-background="new 0 0 512.001 512.001" height="512" viewBox="0 0 512.001 512.001" width="512" xmlns="http://www.w3.org/2000/svg"><g><path d="m240 208c-83.813 0-152 68.187-152 152s68.187 152 152 152 152-68.187 152-152-68.187-152-152-152zm0 288c-74.991 0-136-61.009-136-136s61.009-136 136-136 136 61.009 136 136-61.009 136-136 136z"/><path d="m248 346.165v-66.165c0-4.418-3.582-8-8-8s-8 3.582-8 8v66.165c-5.322 3.09-8.67 9.099-7.875 15.742l-52.925 39.693c-3.535 2.651-4.251 7.666-1.6 11.2 2.638 3.517 7.648 4.263 11.2 1.6l52.918-39.688c10.513 4.506 22.282-3.252 22.282-14.712 0-5.907-3.226-11.063-8-13.835z"/><path d="m448 32h-40v-8c0-13.234-10.766-24-24-24s-24 10.766-24 24v8h-240v-8c0-13.234-10.766-24-24-24s-24 10.766-24 24v8h-40c-17.645 0-32 14.355-32 32v336c0 17.645 14.355 32 32 32h48c4.418 0 8-3.582 8-8s-3.582-8-8-8h-48c-8.822 0-16-7.178-16-16v-272h448v272c0 8.822-7.178 16-16 16h-48c-4.418 0-8 3.582-8 8s3.582 8 8 8h48c17.645 0 32-14.355 32-32 0-14.641 0-319.924 0-336 0-17.645-14.355-32-32-32zm-72-8c0-4.411 3.589-8 8-8s8 3.589 8 8v40c0 4.411-3.589 8-8 8s-8-3.589-8-8zm-288 0c0-4.411 3.589-8 8-8s8 3.589 8 8v40c0 4.411-3.589 8-8 8s-8-3.589-8-8zm-72 88v-48c0-8.822 7.178-16 16-16h40v16c0 13.234 10.766 24 24 24s24-10.766 24-24v-16h240v16c0 13.234 10.766 24 24 24s24-10.766 24-24v-16h40c8.822 0 16 7.178 16 16v48z"/><path d="m240 256c4.418 0 8-3.582 8-8v-8c0-4.418-3.582-8-8-8s-8 3.582-8 8v8c0 4.418 3.582 8 8 8z"/><path d="m240 464c-4.418 0-8 3.582-8 8v8c0 4.418 3.582 8 8 8s8-3.582 8-8v-8c0-4.418-3.582-8-8-8z"/><path d="m360 352h-8c-4.418 0-8 3.582-8 8s3.582 8 8 8h8c4.418 0 8-3.582 8-8s-3.582-8-8-8z"/><path d="m136 360c0-4.418-3.582-8-8-8h-8c-4.418 0-8 3.582-8 8s3.582 8 8 8h8c4.418 0 8-3.582 8-8z"/><ellipse cx="180" cy="256.077" rx="8" ry="8" transform="matrix(.871 -.491 .491 .871 -102.503 121.291)"/><ellipse cx="300" cy="463.923" rx="8" ry="8" transform="matrix(.936 -.352 .352 .936 -144.254 135.498)"/><ellipse cx="300" cy="256.077" rx="8" ry="8" transform="matrix(.141 -.99 .99 .141 4.162 516.951)"/><ellipse cx="180" cy="463.923" rx="8" ry="8" transform="matrix(.434 -.901 .901 .434 -316.055 424.507)"/><ellipse cx="343.923" cy="300" rx="8" ry="8" transform="matrix(1 -.009 .009 1 -2.596 3.002)"/><ellipse cx="136.077" cy="420" rx="8" ry="8" transform="matrix(.981 -.193 .193 .981 -78.546 34.184)"/><ellipse cx="343.923" cy="420" rx="8" ry="8" transform="matrix(.308 -.951 .951 .308 -161.675 617.619)"/><ellipse cx="136.077" cy="300" rx="8" ry="8" transform="matrix(.035 -.999 .999 .035 -168.54 425.4)"/></g></svg>